G04 #@! TF.GenerationSoftware,KiCad,Pcbnew,7.0.9*
G04 #@! TF.CreationDate,2024-07-18T06:31:55+01:00*
G04 #@! TF.ProjectId,dacattac-alpha,64616361-7474-4616-932d-616c7068612e,rev?*
G04 #@! TF.SameCoordinates,Original*
G04 #@! TF.FileFunction,Paste,Top*
G04 #@! TF.FilePolarity,Positive*
%FSLAX46Y46*%
G04 Gerber Fmt 4.6, Leading zero omitted, Abs format (unit mm)*
G04 Created by KiCad (PCBNEW 7.0.9) date 2024-07-18 06:31:55*
%MOMM*%
%LPD*%
G01*
G04 APERTURE LIST*
G04 Aperture macros list*
%AMRoundRect*
0 Rectangle with rounded corners*
0 $1 Rounding radius*
0 $2 $3 $4 $5 $6 $7 $8 $9 X,Y pos of 4 corners*
0 Add a 4 corners polygon primitive as box body*
4,1,4,$2,$3,$4,$5,$6,$7,$8,$9,$2,$3,0*
0 Add four circle primitives for the rounded corners*
1,1,$1+$1,$2,$3*
1,1,$1+$1,$4,$5*
1,1,$1+$1,$6,$7*
1,1,$1+$1,$8,$9*
0 Add four rect primitives between the rounded corners*
20,1,$1+$1,$2,$3,$4,$5,0*
20,1,$1+$1,$4,$5,$6,$7,0*
20,1,$1+$1,$6,$7,$8,$9,0*
20,1,$1+$1,$8,$9,$2,$3,0*%
%AMFreePoly0*
4,1,17,3.685500,-0.689500,0.914500,-0.689500,0.914500,-0.450000,0.862658,-0.324842,0.737500,-0.273000,0.560500,-0.273000,0.560500,-0.342000,-0.560500,-0.342000,-0.560500,0.342000,0.560500,0.342000,0.560500,0.273000,0.737500,0.273000,0.862658,0.324842,0.914500,0.450000,0.914500,0.689500,3.685500,0.689500,3.685500,-0.689500,3.685500,-0.689500,$1*%
G04 Aperture macros list end*
%ADD10C,0.010000*%
%ADD11RoundRect,0.117000X0.244000X-0.225000X0.244000X0.225000X-0.244000X0.225000X-0.244000X-0.225000X0*%
%ADD12RoundRect,0.117000X-0.339000X0.225000X-0.339000X-0.225000X0.339000X-0.225000X0.339000X0.225000X0*%
%ADD13RoundRect,0.117000X-0.244000X0.225000X-0.244000X-0.225000X0.244000X-0.225000X0.244000X0.225000X0*%
%ADD14RoundRect,0.117000X0.225000X0.244000X-0.225000X0.244000X-0.225000X-0.244000X0.225000X-0.244000X0*%
%ADD15RoundRect,0.104000X0.200000X0.257000X-0.200000X0.257000X-0.200000X-0.257000X0.200000X-0.257000X0*%
%ADD16RoundRect,0.104000X0.257000X-0.200000X0.257000X0.200000X-0.257000X0.200000X-0.257000X-0.200000X0*%
%ADD17RoundRect,0.112000X0.325000X0.914000X-0.325000X0.914000X-0.325000X-0.914000X0.325000X-0.914000X0*%
%ADD18RoundRect,0.117000X-0.225000X-0.244000X0.225000X-0.244000X0.225000X0.244000X-0.225000X0.244000X0*%
%ADD19RoundRect,0.000000X0.503500X0.228000X-0.503500X0.228000X-0.503500X-0.228000X0.503500X-0.228000X0*%
%ADD20RoundRect,0.104000X-0.257000X0.200000X-0.257000X-0.200000X0.257000X-0.200000X0.257000X0.200000X0*%
%ADD21RoundRect,0.000000X-0.560500X-0.152000X0.560500X-0.152000X0.560500X0.152000X-0.560500X0.152000X0*%
%ADD22RoundRect,0.104000X-0.200000X-0.257000X0.200000X-0.257000X0.200000X0.257000X-0.200000X0.257000X0*%
%ADD23RoundRect,0.000000X-0.741000X-0.228000X0.741000X-0.228000X0.741000X0.228000X-0.741000X0.228000X0*%
%ADD24RoundRect,0.112000X0.914000X-0.325000X0.914000X0.325000X-0.914000X0.325000X-0.914000X-0.325000X0*%
%ADD25RoundRect,0.000000X0.560500X0.228000X-0.560500X0.228000X-0.560500X-0.228000X0.560500X-0.228000X0*%
%ADD26RoundRect,0.100000X0.907000X-0.375000X0.907000X0.375000X-0.907000X0.375000X-0.907000X-0.375000X0*%
%ADD27RoundRect,0.000000X0.114000X-0.560500X0.114000X0.560500X-0.114000X0.560500X-0.114000X-0.560500X0*%
%ADD28RoundRect,0.117000X-0.225000X-0.339000X0.225000X-0.339000X0.225000X0.339000X-0.225000X0.339000X0*%
%ADD29R,0.988000X0.684000*%
%ADD30FreePoly0,0.000000*%
%ADD31RoundRect,0.000000X-0.560500X-0.228000X0.560500X-0.228000X0.560500X0.228000X-0.560500X0.228000X0*%
%ADD32RoundRect,0.000000X-0.684000X-0.228000X0.684000X-0.228000X0.684000X0.228000X-0.684000X0.228000X0*%
%ADD33RoundRect,0.100000X-0.907000X0.375000X-0.907000X-0.375000X0.907000X-0.375000X0.907000X0.375000X0*%
%ADD34RoundRect,0.112000X-0.325000X-0.914000X0.325000X-0.914000X0.325000X0.914000X-0.325000X0.914000X0*%
%ADD35RoundRect,0.000000X0.228000X0.091200X-0.228000X0.091200X-0.228000X-0.091200X0.228000X-0.091200X0*%
%ADD36RoundRect,0.000000X-0.503500X-0.228000X0.503500X-0.228000X0.503500X0.228000X-0.503500X0.228000X0*%
%ADD37RoundRect,0.100000X0.375000X0.907000X-0.375000X0.907000X-0.375000X-0.907000X0.375000X-0.907000X0*%
%ADD38R,0.494000X0.243200*%
%ADD39RoundRect,0.117000X0.225000X0.339000X-0.225000X0.339000X-0.225000X-0.339000X0.225000X-0.339000X0*%
G04 APERTURE END LIST*
G04 #@! TO.C,U11*
D10*
X180521000Y-115852000D02*
X179021000Y-115852000D01*
X179021000Y-114792000D01*
X180521000Y-114792000D01*
X180521000Y-115852000D01*
G36*
X180521000Y-115852000D02*
G01*
X179021000Y-115852000D01*
X179021000Y-114792000D01*
X180521000Y-114792000D01*
X180521000Y-115852000D01*
G37*
X180521000Y-114592000D02*
X179021000Y-114592000D01*
X179021000Y-113532000D01*
X180521000Y-113532000D01*
X180521000Y-114592000D01*
G36*
X180521000Y-114592000D02*
G01*
X179021000Y-114592000D01*
X179021000Y-113532000D01*
X180521000Y-113532000D01*
X180521000Y-114592000D01*
G37*
X180146000Y-116392000D02*
X179896000Y-116392000D01*
X179896000Y-116052000D01*
X180146000Y-116052000D01*
X180146000Y-116392000D01*
G36*
X180146000Y-116392000D02*
G01*
X179896000Y-116392000D01*
X179896000Y-116052000D01*
X180146000Y-116052000D01*
X180146000Y-116392000D01*
G37*
X180146000Y-113332000D02*
X179896000Y-113332000D01*
X179896000Y-112992000D01*
X180146000Y-112992000D01*
X180146000Y-113332000D01*
G36*
X180146000Y-113332000D02*
G01*
X179896000Y-113332000D01*
X179896000Y-112992000D01*
X180146000Y-112992000D01*
X180146000Y-113332000D01*
G37*
X179646000Y-116392000D02*
X179396000Y-116392000D01*
X179396000Y-116052000D01*
X179646000Y-116052000D01*
X179646000Y-116392000D01*
G36*
X179646000Y-116392000D02*
G01*
X179396000Y-116392000D01*
X179396000Y-116052000D01*
X179646000Y-116052000D01*
X179646000Y-116392000D01*
G37*
X179646000Y-113332000D02*
X179396000Y-113332000D01*
X179396000Y-112992000D01*
X179646000Y-112992000D01*
X179646000Y-113332000D01*
G36*
X179646000Y-113332000D02*
G01*
X179396000Y-113332000D01*
X179396000Y-112992000D01*
X179646000Y-112992000D01*
X179646000Y-113332000D01*
G37*
G04 #@! TO.C,U2*
X177654000Y-101029000D02*
X177022000Y-101029000D01*
X177022000Y-100017000D01*
X177654000Y-100017000D01*
X177654000Y-101029000D01*
G36*
X177654000Y-101029000D02*
G01*
X177022000Y-101029000D01*
X177022000Y-100017000D01*
X177654000Y-100017000D01*
X177654000Y-101029000D01*
G37*
G04 #@! TD*
D11*
G04 #@! TO.C,C17*
X151069000Y-70652000D03*
X151069000Y-72202000D03*
G04 #@! TD*
D12*
G04 #@! TO.C,D2*
X172659000Y-113356000D03*
X172659000Y-116656000D03*
G04 #@! TD*
D13*
G04 #@! TO.C,C19*
X111064000Y-90350000D03*
X111064000Y-91900000D03*
G04 #@! TD*
D14*
G04 #@! TO.C,C88*
X151095000Y-102936000D03*
X149545000Y-102936000D03*
G04 #@! TD*
D15*
G04 #@! TO.C,R8*
X134749000Y-79822000D03*
X133099000Y-79822000D03*
G04 #@! TD*
G04 #@! TO.C,R17*
X97729000Y-78298000D03*
X96079000Y-78298000D03*
G04 #@! TD*
D11*
G04 #@! TO.C,C37*
X109794000Y-96358000D03*
X109794000Y-94808000D03*
G04 #@! TD*
D14*
G04 #@! TO.C,C13*
X151336000Y-77155000D03*
X149786000Y-77155000D03*
G04 #@! TD*
D15*
G04 #@! TO.C,R19*
X113667000Y-76266000D03*
X112017000Y-76266000D03*
G04 #@! TD*
D16*
G04 #@! TO.C,R62*
X193294000Y-84965000D03*
X193294000Y-83315000D03*
G04 #@! TD*
D17*
G04 #@! TO.C,C68*
X180816000Y-110810000D03*
X177866000Y-110810000D03*
G04 #@! TD*
D18*
G04 #@! TO.C,C66*
X177993000Y-118557000D03*
X179543000Y-118557000D03*
G04 #@! TD*
D19*
G04 #@! TO.C,U3*
X160202000Y-77978000D03*
X160202000Y-77028000D03*
X160202000Y-76078000D03*
X157927000Y-76078000D03*
X157927000Y-77028000D03*
X157927000Y-77978000D03*
G04 #@! TD*
D20*
G04 #@! TO.C,R24*
X97856000Y-74362000D03*
X97856000Y-76012000D03*
G04 #@! TD*
D13*
G04 #@! TO.C,C67*
X182819000Y-113985000D03*
X182819000Y-115535000D03*
G04 #@! TD*
D21*
G04 #@! TO.C,U9*
X99243000Y-126513000D03*
X99243000Y-127163000D03*
X99243000Y-127813000D03*
X99243000Y-128463000D03*
X99243000Y-129113000D03*
X99243000Y-129763000D03*
X99243000Y-130413000D03*
X99243000Y-131063000D03*
X99243000Y-131713000D03*
X99243000Y-132363000D03*
X104968000Y-132363000D03*
X104968000Y-131713000D03*
X104968000Y-131063000D03*
X104968000Y-130413000D03*
X104968000Y-129763000D03*
X104968000Y-129113000D03*
X104968000Y-128463000D03*
X104968000Y-127813000D03*
X104968000Y-127163000D03*
X104968000Y-126513000D03*
G04 #@! TD*
D13*
G04 #@! TO.C,C29*
X109413000Y-98605000D03*
X109413000Y-100155000D03*
G04 #@! TD*
D11*
G04 #@! TO.C,C70*
X97856000Y-81981000D03*
X97856000Y-80431000D03*
G04 #@! TD*
G04 #@! TO.C,C50*
X93030000Y-69421000D03*
X93030000Y-67871000D03*
G04 #@! TD*
D22*
G04 #@! TO.C,R39*
X177260000Y-98110000D03*
X178910000Y-98110000D03*
G04 #@! TD*
D11*
G04 #@! TO.C,C40*
X96078000Y-90262000D03*
X96078000Y-88712000D03*
G04 #@! TD*
D18*
G04 #@! TO.C,C7*
X133771000Y-65344000D03*
X135321000Y-65344000D03*
G04 #@! TD*
D11*
G04 #@! TO.C,C58*
X99063000Y-124851000D03*
X99063000Y-123301000D03*
G04 #@! TD*
D15*
G04 #@! TO.C,R41*
X173230000Y-118557000D03*
X171580000Y-118557000D03*
G04 #@! TD*
D14*
G04 #@! TO.C,C14*
X151323000Y-73853000D03*
X149773000Y-73853000D03*
G04 #@! TD*
D22*
G04 #@! TO.C,R33*
X108017000Y-128254000D03*
X109667000Y-128254000D03*
G04 #@! TD*
D23*
G04 #@! TO.C,U13*
X162564000Y-94935000D03*
X162564000Y-96205000D03*
X162564000Y-97475000D03*
X162564000Y-98745000D03*
X167514000Y-98745000D03*
X167514000Y-97475000D03*
X167514000Y-96205000D03*
X167514000Y-94935000D03*
G04 #@! TD*
D20*
G04 #@! TO.C,R48*
X118303000Y-108842000D03*
X118303000Y-110492000D03*
G04 #@! TD*
D24*
G04 #@! TO.C,C63*
X172942000Y-102965000D03*
X172942000Y-100015000D03*
G04 #@! TD*
D18*
G04 #@! TO.C,C6*
X157660000Y-79822000D03*
X159210000Y-79822000D03*
G04 #@! TD*
D13*
G04 #@! TO.C,C65*
X182819000Y-117134000D03*
X182819000Y-118684000D03*
G04 #@! TD*
D18*
G04 #@! TO.C,C52*
X93780000Y-126730000D03*
X95330000Y-126730000D03*
G04 #@! TD*
D11*
G04 #@! TO.C,C34*
X108016000Y-104740000D03*
X108016000Y-103190000D03*
G04 #@! TD*
D25*
G04 #@! TO.C,Q1*
X195423000Y-81661000D03*
X195423000Y-79761000D03*
X193548000Y-80711000D03*
G04 #@! TD*
D13*
G04 #@! TO.C,C30*
X111064000Y-98605000D03*
X111064000Y-100155000D03*
G04 #@! TD*
D22*
G04 #@! TO.C,R15*
X104588000Y-78552000D03*
X106238000Y-78552000D03*
G04 #@! TD*
D11*
G04 #@! TO.C,C16*
X152720000Y-72202000D03*
X152720000Y-70652000D03*
G04 #@! TD*
D22*
G04 #@! TO.C,R6*
X125733000Y-75250000D03*
X127383000Y-75250000D03*
G04 #@! TD*
D14*
G04 #@! TO.C,C22*
X123129000Y-84267000D03*
X121579000Y-84267000D03*
G04 #@! TD*
D18*
G04 #@! TO.C,C28*
X131130000Y-102174000D03*
X132680000Y-102174000D03*
G04 #@! TD*
D13*
G04 #@! TO.C,C53*
X97158000Y-126603000D03*
X97158000Y-128153000D03*
G04 #@! TD*
D14*
G04 #@! TO.C,C3*
X162766000Y-85791000D03*
X161216000Y-85791000D03*
G04 #@! TD*
D11*
G04 #@! TO.C,C1*
X174183000Y-76139000D03*
X174183000Y-74589000D03*
G04 #@! TD*
D22*
G04 #@! TO.C,R5*
X129797000Y-77790000D03*
X131447000Y-77790000D03*
G04 #@! TD*
D11*
G04 #@! TO.C,C69*
X96078000Y-81981000D03*
X96078000Y-80431000D03*
G04 #@! TD*
G04 #@! TO.C,C47*
X91252000Y-69421000D03*
X91252000Y-67871000D03*
G04 #@! TD*
D15*
G04 #@! TO.C,R36*
X109667000Y-134858000D03*
X108017000Y-134858000D03*
G04 #@! TD*
D18*
G04 #@! TO.C,C74*
X162473000Y-110937000D03*
X164023000Y-110937000D03*
G04 #@! TD*
G04 #@! TO.C,C59*
X108067000Y-124952000D03*
X109617000Y-124952000D03*
G04 #@! TD*
D26*
G04 #@! TO.C,L16*
X175707000Y-116404000D03*
X175707000Y-113604000D03*
G04 #@! TD*
D14*
G04 #@! TO.C,C32*
X101412000Y-105984000D03*
X99862000Y-105984000D03*
G04 #@! TD*
D15*
G04 #@! TO.C,R12*
X127891000Y-84267000D03*
X126241000Y-84267000D03*
G04 #@! TD*
D18*
G04 #@! TO.C,C24*
X131117000Y-87950000D03*
X132667000Y-87950000D03*
G04 #@! TD*
D14*
G04 #@! TO.C,C12*
X151336000Y-78806000D03*
X149786000Y-78806000D03*
G04 #@! TD*
D13*
G04 #@! TO.C,C87*
X158689000Y-100904000D03*
X158689000Y-102454000D03*
G04 #@! TD*
D11*
G04 #@! TO.C,C48*
X96078000Y-68659000D03*
X96078000Y-67109000D03*
G04 #@! TD*
D24*
G04 #@! TO.C,C84*
X159324000Y-98696000D03*
X159324000Y-95746000D03*
G04 #@! TD*
D11*
G04 #@! TO.C,C54*
X100968000Y-124838000D03*
X100968000Y-123288000D03*
G04 #@! TD*
D27*
G04 #@! TO.C,U1*
X164556000Y-87103500D03*
X165056000Y-87103500D03*
X165556000Y-87103500D03*
X166056000Y-87103500D03*
X166556000Y-87103500D03*
X167056000Y-87103500D03*
X167556000Y-87103500D03*
X168056000Y-87103500D03*
X168556000Y-87103500D03*
X169056000Y-87103500D03*
X169556000Y-87103500D03*
X170056000Y-87103500D03*
X170556000Y-87103500D03*
X171056000Y-87103500D03*
X171556000Y-87103500D03*
X172056000Y-87103500D03*
X172556000Y-87103500D03*
X173056000Y-87103500D03*
X173556000Y-87103500D03*
X174056000Y-87103500D03*
X174556000Y-87103500D03*
X175056000Y-87103500D03*
X175556000Y-87103500D03*
X176056000Y-87103500D03*
X176056000Y-79678500D03*
X175556000Y-79678500D03*
X175056000Y-79678500D03*
X174556000Y-79678500D03*
X174056000Y-79678500D03*
X173556000Y-79678500D03*
X173056000Y-79678500D03*
X172556000Y-79678500D03*
X172056000Y-79678500D03*
X171556000Y-79678500D03*
X171056000Y-79678500D03*
X170556000Y-79678500D03*
X170056000Y-79678500D03*
X169556000Y-79678500D03*
X169056000Y-79678500D03*
X168556000Y-79678500D03*
X168056000Y-79678500D03*
X167556000Y-79678500D03*
X167056000Y-79678500D03*
X166556000Y-79678500D03*
X166056000Y-79678500D03*
X165556000Y-79678500D03*
X165056000Y-79678500D03*
X164556000Y-79678500D03*
G04 #@! TD*
D13*
G04 #@! TO.C,C20*
X109413000Y-90350000D03*
X109413000Y-91900000D03*
G04 #@! TD*
D28*
G04 #@! TO.C,D5*
X117542000Y-115001000D03*
X120842000Y-115001000D03*
G04 #@! TD*
D11*
G04 #@! TO.C,C2*
X162753000Y-80216000D03*
X162753000Y-78666000D03*
G04 #@! TD*
D15*
G04 #@! TO.C,R1*
X134749000Y-73726000D03*
X133099000Y-73726000D03*
G04 #@! TD*
D28*
G04 #@! TO.C,D1*
X175611000Y-103317000D03*
X178911000Y-103317000D03*
G04 #@! TD*
D15*
G04 #@! TO.C,R34*
X109667000Y-129905000D03*
X108017000Y-129905000D03*
G04 #@! TD*
D26*
G04 #@! TO.C,L5*
X154752000Y-93414000D03*
X154752000Y-90614000D03*
G04 #@! TD*
D25*
G04 #@! TO.C,Q3*
X187391000Y-97856000D03*
X187391000Y-95956000D03*
X185516000Y-96906000D03*
G04 #@! TD*
D16*
G04 #@! TO.C,R23*
X121224000Y-73535000D03*
X121224000Y-71885000D03*
G04 #@! TD*
D22*
G04 #@! TO.C,R52*
X193295000Y-86807000D03*
X194945000Y-86807000D03*
G04 #@! TD*
D13*
G04 #@! TO.C,C60*
X122685000Y-126240000D03*
X122685000Y-127790000D03*
G04 #@! TD*
D15*
G04 #@! TO.C,R32*
X109667000Y-126603000D03*
X108017000Y-126603000D03*
G04 #@! TD*
D11*
G04 #@! TO.C,C38*
X108016000Y-96358000D03*
X108016000Y-94808000D03*
G04 #@! TD*
D14*
G04 #@! TO.C,C43*
X105222000Y-74488000D03*
X103672000Y-74488000D03*
G04 #@! TD*
D29*
G04 #@! TO.C,U10*
X116798000Y-125388000D03*
D30*
X116885500Y-126888000D03*
D29*
X116798000Y-128388000D03*
G04 #@! TD*
D18*
G04 #@! TO.C,C44*
X100370000Y-74488000D03*
X101920000Y-74488000D03*
G04 #@! TD*
D13*
G04 #@! TO.C,C21*
X125796000Y-71935000D03*
X125796000Y-73485000D03*
G04 #@! TD*
D15*
G04 #@! TO.C,R46*
X112815600Y-134858000D03*
X111165600Y-134858000D03*
G04 #@! TD*
D31*
G04 #@! TO.C,Q5*
X128366000Y-112146000D03*
X128366000Y-114046000D03*
X130241000Y-113096000D03*
G04 #@! TD*
D15*
G04 #@! TO.C,R4*
X134749000Y-77790000D03*
X133099000Y-77790000D03*
G04 #@! TD*
D16*
G04 #@! TO.C,R27*
X96078000Y-76012000D03*
X96078000Y-74362000D03*
G04 #@! TD*
D11*
G04 #@! TO.C,C8*
X136591000Y-112270000D03*
X136591000Y-110720000D03*
G04 #@! TD*
D32*
G04 #@! TO.C,U4*
X137278000Y-73472000D03*
X137278000Y-74742000D03*
X137278000Y-76012000D03*
X137278000Y-77282000D03*
X137278000Y-78552000D03*
X137278000Y-79822000D03*
X137278000Y-81092000D03*
X137278000Y-82362000D03*
X137278000Y-83632000D03*
X137278000Y-84902000D03*
X137278000Y-86172000D03*
X137278000Y-87442000D03*
X137278000Y-88712000D03*
X137278000Y-89982000D03*
X146878000Y-89982000D03*
X146878000Y-88712000D03*
X146878000Y-87442000D03*
X146878000Y-86172000D03*
X146878000Y-84902000D03*
X146878000Y-83632000D03*
X146878000Y-82362000D03*
X146878000Y-81092000D03*
X146878000Y-79822000D03*
X146878000Y-78552000D03*
X146878000Y-77282000D03*
X146878000Y-76012000D03*
X146878000Y-74742000D03*
X146878000Y-73472000D03*
G04 #@! TD*
D20*
G04 #@! TO.C,R3*
X124018000Y-71885000D03*
X124018000Y-73535000D03*
G04 #@! TD*
D15*
G04 #@! TO.C,R40*
X178847000Y-105349000D03*
X177197000Y-105349000D03*
G04 #@! TD*
G04 #@! TO.C,R14*
X117033000Y-78552000D03*
X115383000Y-78552000D03*
G04 #@! TD*
D22*
G04 #@! TO.C,R16*
X107890000Y-78552000D03*
X109540000Y-78552000D03*
G04 #@! TD*
D33*
G04 #@! TO.C,L15*
X181451000Y-100644000D03*
X181451000Y-103444000D03*
G04 #@! TD*
D11*
G04 #@! TO.C,C9*
X121859000Y-110442000D03*
X121859000Y-108892000D03*
G04 #@! TD*
D13*
G04 #@! TO.C,C18*
X112715000Y-90350000D03*
X112715000Y-91900000D03*
G04 #@! TD*
D11*
G04 #@! TO.C,C35*
X96078000Y-98644000D03*
X96078000Y-97094000D03*
G04 #@! TD*
D34*
G04 #@! TO.C,C11*
X112813000Y-114620000D03*
X115763000Y-114620000D03*
G04 #@! TD*
D18*
G04 #@! TO.C,C15*
X149773000Y-75504000D03*
X151323000Y-75504000D03*
G04 #@! TD*
D15*
G04 #@! TO.C,R42*
X176342000Y-118557000D03*
X174692000Y-118557000D03*
G04 #@! TD*
D20*
G04 #@! TO.C,R61*
X193294000Y-72838000D03*
X193294000Y-74488000D03*
G04 #@! TD*
D24*
G04 #@! TO.C,C64*
X181451000Y-98618000D03*
X181451000Y-95668000D03*
G04 #@! TD*
D11*
G04 #@! TO.C,C61*
X115128000Y-128298000D03*
X115128000Y-126748000D03*
G04 #@! TD*
D34*
G04 #@! TO.C,C55*
X102922000Y-124190000D03*
X105872000Y-124190000D03*
G04 #@! TD*
D35*
G04 #@! TO.C,U11*
X181171000Y-115692000D03*
X181171000Y-115192000D03*
X181171000Y-114692000D03*
X181171000Y-114192000D03*
X181171000Y-113692000D03*
X178371000Y-113692000D03*
X178371000Y-114192000D03*
X178371000Y-114692000D03*
X178371000Y-115192000D03*
X178371000Y-115692000D03*
G04 #@! TD*
D16*
G04 #@! TO.C,R21*
X117668000Y-67883000D03*
X117668000Y-66233000D03*
G04 #@! TD*
D11*
G04 #@! TO.C,C73*
X160340000Y-102454000D03*
X160340000Y-100904000D03*
G04 #@! TD*
D18*
G04 #@! TO.C,C72*
X165902000Y-110937000D03*
X167452000Y-110937000D03*
G04 #@! TD*
D25*
G04 #@! TO.C,Q2*
X195423000Y-77978000D03*
X195423000Y-76078000D03*
X193548000Y-77028000D03*
G04 #@! TD*
D15*
G04 #@! TO.C,R7*
X129161000Y-71694000D03*
X127511000Y-71694000D03*
G04 #@! TD*
D21*
G04 #@! TO.C,U17*
X131697500Y-67100000D03*
X131697500Y-67750000D03*
X131697500Y-68400000D03*
X131697500Y-69050000D03*
X137422500Y-69050000D03*
X137422500Y-68400000D03*
X137422500Y-67750000D03*
X137422500Y-67100000D03*
G04 #@! TD*
D17*
G04 #@! TO.C,C85*
X156051000Y-101666000D03*
X153101000Y-101666000D03*
G04 #@! TD*
D11*
G04 #@! TO.C,C77*
X158435000Y-93564000D03*
X158435000Y-92014000D03*
G04 #@! TD*
G04 #@! TO.C,C36*
X97856000Y-98644000D03*
X97856000Y-97094000D03*
G04 #@! TD*
D20*
G04 #@! TO.C,R31*
X134686000Y-108842000D03*
X134686000Y-110492000D03*
G04 #@! TD*
D18*
G04 #@! TO.C,C76*
X112689000Y-117287000D03*
X114239000Y-117287000D03*
G04 #@! TD*
G04 #@! TO.C,C75*
X134660000Y-107127000D03*
X136210000Y-107127000D03*
G04 #@! TD*
D22*
G04 #@! TO.C,R2*
X127511000Y-73472000D03*
X129161000Y-73472000D03*
G04 #@! TD*
D11*
G04 #@! TO.C,C78*
X154752000Y-106238000D03*
X154752000Y-104688000D03*
G04 #@! TD*
D36*
G04 #@! TO.C,U5*
X121732000Y-80330000D03*
X121732000Y-81280000D03*
X121732000Y-82230000D03*
X124007000Y-82230000D03*
X124007000Y-80330000D03*
G04 #@! TD*
D13*
G04 #@! TO.C,C45*
X117668000Y-71935000D03*
X117668000Y-73485000D03*
G04 #@! TD*
D16*
G04 #@! TO.C,R28*
X89474000Y-69471000D03*
X89474000Y-67821000D03*
G04 #@! TD*
D37*
G04 #@! TO.C,L18*
X167325000Y-107762000D03*
X164525000Y-107762000D03*
G04 #@! TD*
D11*
G04 #@! TO.C,C56*
X97158000Y-124838000D03*
X97158000Y-123288000D03*
G04 #@! TD*
D37*
G04 #@! TO.C,L17*
X165928000Y-101666000D03*
X163128000Y-101666000D03*
G04 #@! TD*
D18*
G04 #@! TO.C,C26*
X131130000Y-98618000D03*
X132680000Y-98618000D03*
G04 #@! TD*
D28*
G04 #@! TO.C,D4*
X122623000Y-115128000D03*
X125923000Y-115128000D03*
G04 #@! TD*
D16*
G04 #@! TO.C,R25*
X96078000Y-72773000D03*
X96078000Y-71123000D03*
G04 #@! TD*
D20*
G04 #@! TO.C,R47*
X131511000Y-108842000D03*
X131511000Y-110492000D03*
G04 #@! TD*
G04 #@! TO.C,R49*
X111953000Y-109795000D03*
X111953000Y-111445000D03*
G04 #@! TD*
D36*
G04 #@! TO.C,U7*
X100661000Y-76652000D03*
X100661000Y-77602000D03*
X100661000Y-78552000D03*
X102936000Y-78552000D03*
X102936000Y-76652000D03*
G04 #@! TD*
D31*
G04 #@! TO.C,Q6*
X114269000Y-109860000D03*
X114269000Y-111760000D03*
X116144000Y-110810000D03*
G04 #@! TD*
D22*
G04 #@! TO.C,R9*
X133099000Y-75758000D03*
X134749000Y-75758000D03*
G04 #@! TD*
D23*
G04 #@! TO.C,U14*
X157168000Y-104714000D03*
X157168000Y-105984000D03*
X157168000Y-107254000D03*
X157168000Y-108524000D03*
X162118000Y-108524000D03*
X162118000Y-107254000D03*
X162118000Y-105984000D03*
X162118000Y-104714000D03*
G04 #@! TD*
D11*
G04 #@! TO.C,C41*
X109794000Y-87595000D03*
X109794000Y-86045000D03*
G04 #@! TD*
D15*
G04 #@! TO.C,R43*
X138115000Y-114048000D03*
X136465000Y-114048000D03*
G04 #@! TD*
D33*
G04 #@! TO.C,L22*
X150307000Y-98107000D03*
X150307000Y-100907000D03*
G04 #@! TD*
D11*
G04 #@! TO.C,C71*
X167960000Y-102073000D03*
X167960000Y-100523000D03*
G04 #@! TD*
D16*
G04 #@! TO.C,R45*
X182819000Y-112461000D03*
X182819000Y-110811000D03*
G04 #@! TD*
D11*
G04 #@! TO.C,C39*
X97856000Y-90262000D03*
X97856000Y-88712000D03*
G04 #@! TD*
D33*
G04 #@! TO.C,L21*
X154752000Y-95567000D03*
X154752000Y-98367000D03*
G04 #@! TD*
D15*
G04 #@! TO.C,R37*
X109667000Y-133207000D03*
X108017000Y-133207000D03*
G04 #@! TD*
D18*
G04 #@! TO.C,C25*
X131117000Y-89728000D03*
X132667000Y-89728000D03*
G04 #@! TD*
D15*
G04 #@! TO.C,R10*
X127891000Y-82235000D03*
X126241000Y-82235000D03*
G04 #@! TD*
D18*
G04 #@! TO.C,C27*
X131130000Y-100396000D03*
X132680000Y-100396000D03*
G04 #@! TD*
D13*
G04 #@! TO.C,C31*
X112715000Y-98605000D03*
X112715000Y-100155000D03*
G04 #@! TD*
D18*
G04 #@! TO.C,C51*
X93780000Y-131937000D03*
X95330000Y-131937000D03*
G04 #@! TD*
D38*
G04 #@! TO.C,U2*
X176313000Y-99873000D03*
X176313000Y-100523000D03*
X176313000Y-101173000D03*
X178363000Y-101173000D03*
X178363000Y-100523000D03*
X178363000Y-99873000D03*
G04 #@! TD*
D15*
G04 #@! TO.C,R13*
X117033000Y-80330000D03*
X115383000Y-80330000D03*
G04 #@! TD*
D16*
G04 #@! TO.C,R44*
X129733000Y-110492000D03*
X129733000Y-108842000D03*
G04 #@! TD*
D18*
G04 #@! TO.C,C5*
X157660000Y-74234000D03*
X159210000Y-74234000D03*
G04 #@! TD*
D11*
G04 #@! TO.C,C46*
X97856000Y-68659000D03*
X97856000Y-67109000D03*
G04 #@! TD*
D22*
G04 #@! TO.C,R18*
X95190000Y-94300000D03*
X96840000Y-94300000D03*
G04 #@! TD*
D18*
G04 #@! TO.C,C33*
X104206000Y-105984000D03*
X105756000Y-105984000D03*
G04 #@! TD*
D15*
G04 #@! TO.C,R35*
X109667000Y-131556000D03*
X108017000Y-131556000D03*
G04 #@! TD*
D11*
G04 #@! TO.C,C42*
X108016000Y-87595000D03*
X108016000Y-86045000D03*
G04 #@! TD*
D16*
G04 #@! TO.C,R26*
X97856000Y-72773000D03*
X97856000Y-71123000D03*
G04 #@! TD*
G04 #@! TO.C,R51*
X110937000Y-115445000D03*
X110937000Y-113795000D03*
G04 #@! TD*
D11*
G04 #@! TO.C,C10*
X120081000Y-110442000D03*
X120081000Y-108892000D03*
G04 #@! TD*
D18*
G04 #@! TO.C,C57*
X108067000Y-123301000D03*
X109617000Y-123301000D03*
G04 #@! TD*
D39*
G04 #@! TO.C,D3*
X131383000Y-116207000D03*
X128083000Y-116207000D03*
G04 #@! TD*
D15*
G04 #@! TO.C,R50*
X120906000Y-112588000D03*
X119256000Y-112588000D03*
G04 #@! TD*
D22*
G04 #@! TO.C,R20*
X107889000Y-76266000D03*
X109539000Y-76266000D03*
G04 #@! TD*
D33*
G04 #@! TO.C,L6*
X150307000Y-92776000D03*
X150307000Y-95576000D03*
G04 #@! TD*
D20*
G04 #@! TO.C,R22*
X119446000Y-71885000D03*
X119446000Y-73535000D03*
G04 #@! TD*
D23*
G04 #@! TO.C,U6*
X120719000Y-66233000D03*
X120719000Y-67503000D03*
X120719000Y-68773000D03*
X120719000Y-70043000D03*
X125669000Y-70043000D03*
X125669000Y-68773000D03*
X125669000Y-67503000D03*
X125669000Y-66233000D03*
G04 #@! TD*
D15*
G04 #@! TO.C,R29*
X95380000Y-128381000D03*
X93730000Y-128381000D03*
G04 #@! TD*
D24*
G04 #@! TO.C,C79*
X169611000Y-116427000D03*
X169611000Y-113477000D03*
G04 #@! TD*
D28*
G04 #@! TO.C,D6*
X122623000Y-112588000D03*
X125923000Y-112588000D03*
G04 #@! TD*
D15*
G04 #@! TO.C,R30*
X95380000Y-130159000D03*
X93730000Y-130159000D03*
G04 #@! TD*
D18*
G04 #@! TO.C,C62*
X180435000Y-105349000D03*
X181985000Y-105349000D03*
G04 #@! TD*
D15*
G04 #@! TO.C,R11*
X123129000Y-78298000D03*
X121479000Y-78298000D03*
G04 #@! TD*
D22*
G04 #@! TO.C,R38*
X174086000Y-98110000D03*
X175736000Y-98110000D03*
G04 #@! TD*
D13*
G04 #@! TO.C,C4*
X173040000Y-89474000D03*
X173040000Y-91024000D03*
G04 #@! TD*
D25*
G04 #@! TO.C,Q4*
X134559000Y-114043000D03*
X134559000Y-112143000D03*
X132684000Y-113093000D03*
G04 #@! TD*
D18*
G04 #@! TO.C,C23*
X124767000Y-78298000D03*
X126317000Y-78298000D03*
G04 #@! TD*
M02*
