M48
; DRILL file {KiCad 7.0.9} date Thu Jul 18 06:31:57 2024
; FORMAT={-:-/ absolute / inch / decimal}
; #@! TF.CreationDate,2024-07-18T06:31:57+01:00
; #@! TF.GenerationSoftware,Kicad,Pcbnew,7.0.9
; #@! TF.FileFunction,Plated,1,2,PTH
FMAT,2
INCH
; #@! TA.AperFunction,Plated,PTH,ComponentDrill
T1C0.0150
; #@! TA.AperFunction,Plated,PTH,ViaDrill
T2C0.0157
; #@! TA.AperFunction,Plated,PTH,ComponentDrill
T3C0.0350
; #@! TA.AperFunction,Plated,PTH,ComponentDrill
T4C0.0394
; #@! TA.AperFunction,Plated,PTH,ComponentDrill
T5C0.0400
; #@! TA.AperFunction,Plated,PTH,ComponentDrill
T6C0.0469
; #@! TA.AperFunction,Plated,PTH,ComponentDrill
T7C0.0472
; #@! TA.AperFunction,Plated,PTH,ComponentDrill
T8C0.0512
; #@! TA.AperFunction,Plated,PTH,ComponentDrill
T9C0.0791
; #@! TA.AperFunction,Plated,PTH,ComponentDrill
T10C0.1260
%
G90
G05
T1
X3.2091Y-2.6673
X3.2091Y-5.3051
X3.2346Y-2.6063
X3.2346Y-2.7283
X3.2346Y-5.2441
X3.2346Y-5.3661
X3.2957Y-2.5807
X3.2957Y-2.7539
X3.2957Y-5.2185
X3.2957Y-5.3917
X3.3567Y-2.6063
X3.3567Y-2.7283
X3.3567Y-5.2441
X3.3567Y-5.3661
X3.3823Y-2.6673
X3.3823Y-5.3051
X5.65Y-2.6673
X5.6756Y-2.6063
X5.6756Y-2.7283
X5.7366Y-2.5807
X5.7366Y-2.7539
X5.7976Y-2.6063
X5.7976Y-2.7283
X5.8232Y-2.6673
X5.8469Y-4.2421
X5.8724Y-4.1811
X5.8724Y-4.3031
X5.9335Y-4.1555
X5.9335Y-4.3287
X5.9945Y-4.1811
X5.9945Y-4.3031
X6.0201Y-4.2421
X7.6185Y-2.6673
X7.6185Y-5.3051
X7.6441Y-2.6063
X7.6441Y-2.7283
X7.6441Y-5.2441
X7.6441Y-5.3661
X7.7051Y-2.5807
X7.7051Y-2.7539
X7.7051Y-5.2185
X7.7051Y-5.3917
X7.7661Y-2.6063
X7.7661Y-2.7283
X7.7661Y-5.2441
X7.7661Y-5.3661
X7.7917Y-2.6673
X7.7917Y-5.3051
T2
X3.4826Y-2.6701
X3.6001Y-4.4951
X3.6476Y-4.4476
X3.6826Y-3.2926
X3.6826Y-3.4376
X3.6826Y-3.9576
X3.6926Y-4.6826
X3.6941Y-4.8913
X3.7026Y-2.6726
X3.7126Y-4.1076
X3.7426Y-2.6421
X3.7526Y-4.6826
X3.7531Y-4.8913
X3.7776Y-5.2894
X3.7826Y-3.4376
X3.7958Y-5.1944
X3.7976Y-3.2926
X3.8176Y-3.1666
X3.8176Y-3.4926
X3.8176Y-3.8226
X3.8326Y-5.2326
X3.8626Y-4.8539
X3.8926Y-4.1726
X3.9127Y-2.9658
X3.9376Y-4.8539
X3.9576Y-5.0326
X3.9576Y-5.1885
X3.9951Y-5.2894
X4.0126Y-4.3276
X4.0326Y-3.0626
X4.0376Y-5.2426
X4.0476Y-2.9326
X4.0626Y-3.3076
X4.0676Y-3.9826
X4.0776Y-5.0094
X4.0776Y-5.0826
X4.0876Y-3.6526
X4.1176Y-4.8876
X4.1576Y-4.3276
X4.1826Y-2.9326
X4.1826Y-3.0576
X4.2076Y-5.0803
X4.2126Y-4.1726
X4.2176Y-4.8876
X4.3026Y-4.2826
X4.3126Y-3.0576
X4.3476Y-3.2126
X4.3492Y-4.8876
X4.3526Y-3.0026
X4.3624Y-5.1874
X4.3626Y-5.1144
X4.3776Y-5.0776
X4.4026Y-4.6176
X4.4076Y-4.2926
X4.4826Y-3.4026
X4.4876Y-3.7776
X4.4926Y-4.7976
X4.5076Y-2.9226
X4.5126Y-5.1026
X4.5126Y-5.2376
X4.5326Y-4.9616
X4.5976Y-2.8926
X4.5976Y-4.9076
X4.6276Y-3.9876
X4.6776Y-2.7726
X4.6933Y-4.7343
X4.7126Y-3.0576
X4.7576Y-3.2776
X4.7626Y-4.2871
X4.7976Y-3.4126
X4.7976Y-3.7826
X4.8276Y-5.0676
X4.8376Y-2.9526
X4.8776Y-3.2876
X4.8921Y-4.1976
X4.9276Y-3.2846
X4.9476Y-2.7976
X4.9526Y-2.9276
X4.9576Y-3.0226
X5.0726Y-2.9576
X5.0826Y-3.1576
X5.0926Y-2.7226
X5.0926Y-3.2776
X5.1067Y-4.2421
X5.1276Y-3.0126
X5.1626Y-2.7626
X5.1626Y-2.8476
X5.1626Y-2.9726
X5.1626Y-3.7526
X5.1776Y-4.2511
X5.1826Y-3.2776
X5.1986Y-2.9406
X5.2026Y-4.1776
X5.2126Y-4.5726
X5.2226Y-4.4776
X5.2726Y-2.9426
X5.3226Y-3.2026
X5.3226Y-3.2776
X5.3226Y-4.6426
X5.3226Y-4.7226
X5.3226Y-4.8626
X5.3226Y-5.0226
X5.3226Y-5.1976
X5.3226Y-5.4176
X5.3476Y-3.0926
X5.3576Y-4.0226
X5.3676Y-2.5726
X5.3776Y-4.3176
X5.3951Y-4.5701
X5.4026Y-4.2176
X5.4176Y-4.0826
X5.4576Y-2.7376
X5.4576Y-3.0926
X5.6872Y-3.5022
X5.6874Y-3.4126
X5.6876Y-3.4576
X5.6876Y-3.5426
X5.6877Y-3.3725
X5.6882Y-4.9776
X5.6891Y-3.3276
X5.6926Y-3.2826
X5.7126Y-2.9926
X5.7276Y-2.8926
X5.7376Y-3.5426
X5.7826Y-3.7576
X5.8276Y-3.6376
X5.8376Y-2.8926
X5.8476Y-3.4581
X5.8476Y-3.4976
X5.8476Y-3.5426
X5.8776Y-4.7376
X5.8776Y-4.8676
X5.8776Y-5.0476
X5.8776Y-5.1976
X5.8776Y-5.4176
X5.8824Y-3.4278
X5.8971Y-3.0726
X5.9076Y-3.3976
X5.9126Y-2.6676
X5.9328Y-3.3661
X5.9448Y-3.1648
X5.9476Y-4.0976
X5.9576Y-2.9376
X5.9776Y-3.5926
X5.9796Y-2.7426
X5.9826Y-4.7276
X5.9826Y-5.0426
X5.9926Y-3.0376
X5.9939Y-3.106
X5.9976Y-2.5726
X6.0126Y-3.1476
X6.0476Y-2.7426
X6.0851Y-2.6601
X6.0926Y-3.5286
X6.0926Y-3.7176
X6.1226Y-4.2276
X6.1426Y-3.9226
X6.1426Y-4.0826
X6.1676Y-3.1718
X6.1726Y-3.0326
X6.1926Y-3.5776
X6.1926Y-3.7676
X6.2276Y-5.1926
X6.2726Y-3.7226
X6.2786Y-2.9526
X6.3026Y-3.1426
X6.3176Y-4.2726
X6.3428Y-5.1924
X6.3476Y-3.7876
X6.3476Y-3.8376
X6.3526Y-3.0326
X6.3526Y-3.9376
X6.3626Y-4.4376
X6.3731Y-3.1581
X6.3876Y-3.4326
X6.3876Y-3.6426
X6.4326Y-3.0526
X6.4326Y-3.3776
X6.4526Y-3.7876
X6.4526Y-3.8376
X6.4719Y-3.3776
X6.4776Y-4.1426
X6.5203Y-3.0449
X6.5326Y-4.3226
X6.5426Y-3.7876
X6.5426Y-3.8376
X6.5526Y-3.3767
X6.5976Y-3.0026
X6.5976Y-3.3726
X6.6126Y-3.6226
X6.6426Y-2.5526
X6.6426Y-2.6626
X6.6469Y-3.5191
X6.6476Y-3.7876
X6.6476Y-3.8376
X6.6551Y-3.3751
X6.676Y-3.0026
X6.7376Y-4.7426
X6.7476Y-4.3976
X6.7542Y-3.516
X6.7587Y-3.7676
X6.7587Y-3.8826
X6.7587Y-4.1676
X6.7751Y-3.1974
X6.8087Y-3.8826
X6.8126Y-3.4826
X6.8276Y-3.1976
X6.8476Y-3.5826
X6.8576Y-2.9026
X6.8576Y-3.0276
X6.8726Y-3.4762
X6.875Y-3.1976
X6.8876Y-4.5826
X6.9126Y-5.2826
X6.9129Y-5.1879
X6.93Y-3.1976
X6.9322Y-3.4753
X6.9526Y-4.3626
X6.9526Y-4.5828
X6.9583Y-3.9024
X6.9589Y-4.0124
X6.9817Y-3.9336
X6.9817Y-3.9816
X6.9861Y-3.0276
X7.0024Y-3.9031
X7.0026Y-4.2826
X7.0037Y-4.0126
X7.0237Y-3.7676
X7.0526Y-4.3626
X7.0526Y-4.6026
X7.0606Y-4.5146
X7.0776Y-4.4836
X7.0776Y-4.5466
X7.0946Y-4.5146
X7.1176Y-3.4726
X7.1276Y-4.6026
X7.1676Y-2.6626
X7.1726Y-3.5276
X7.1826Y-2.7926
X7.2026Y-4.3076
X7.2176Y-3.2276
X7.2187Y-3.7676
X7.2187Y-4.1676
X7.22Y-3.0538
X7.2276Y-4.7426
X7.2426Y-2.5876
X7.2676Y-3.2576
X7.2835Y-2.9124
X7.2835Y-3.0026
X7.3276Y-2.7126
X7.3626Y-4.8176
X7.3826Y-3.9276
X7.3826Y-4.4876
X7.4126Y-2.6626
X7.4126Y-2.7676
X7.56Y-2.8626
X7.5626Y-3.5226
X7.6026Y-5.0576
X7.6676Y-5.1226
X7.6976Y-3.6826
X7.6976Y-4.2176
X7.6976Y-4.8176
X7.71Y-3.4176
X7.745Y-2.9426
X7.745Y-3.0676
X7.745Y-3.2176
X7.8211Y-3.6826
X7.8226Y-4.2176
T3
X3.6283Y-3.0839
X3.6283Y-3.1839
X3.6283Y-3.7925
X3.6283Y-3.8925
T4
X3.9526Y-3.2136
X3.9526Y-3.4105
X3.9542Y-3.5442
X3.9542Y-3.741
X3.9542Y-3.8742
X3.9542Y-4.071
X4.051Y-3.2136
X4.0526Y-3.5442
X4.0526Y-3.8742
X4.1494Y-3.2136
X4.1494Y-3.4105
X4.151Y-3.5442
X4.151Y-3.741
X4.151Y-3.8742
X4.151Y-4.071
X4.2642Y-2.6442
X4.2642Y-2.841
X4.4326Y-3.2826
X4.461Y-2.6442
X4.461Y-2.7426
X4.461Y-2.841
X4.5326Y-3.2826
X4.5342Y-3.4842
X4.5342Y-3.681
X4.5342Y-3.8826
X4.5342Y-4.0794
X4.6326Y-3.2826
X4.731Y-3.4842
X4.731Y-3.5826
X4.731Y-3.681
X4.731Y-3.8826
X4.731Y-3.981
X4.731Y-4.0794
X4.8626Y-3.8826
X4.8626Y-4.0794
X4.8642Y-3.4842
X4.8642Y-3.681
X5.0594Y-3.8826
X5.0594Y-3.981
X5.0594Y-4.0794
X5.061Y-3.4842
X5.061Y-3.5826
X5.061Y-3.681
T5
X5.5882Y-3.7126
X5.5882Y-3.8126
X5.5882Y-3.9126
X5.5882Y-4.0126
X5.5882Y-4.1126
X5.5882Y-4.2126
X5.5882Y-4.3126
X5.5882Y-4.4126
X5.5882Y-4.5126
X5.5882Y-4.6126
X5.5882Y-4.7126
X5.6882Y-3.7126
X5.6882Y-3.8126
X5.6882Y-3.9126
X5.6882Y-4.0126
X5.6882Y-4.1126
X5.6882Y-4.2126
X5.6882Y-4.3126
X5.6882Y-4.4126
X5.6882Y-4.5126
X5.6882Y-4.6126
X5.6882Y-4.7126
X6.1882Y-2.7126
X6.1882Y-2.8126
X6.1882Y-5.0126
X6.1882Y-5.1126
X6.2882Y-2.7126
X6.2882Y-2.8126
X6.2882Y-5.0126
X6.2882Y-5.1126
X6.3882Y-2.7126
X6.3882Y-2.8126
X6.3882Y-5.0126
X6.3882Y-5.1126
X6.4882Y-2.7126
X6.4882Y-2.8126
X6.4882Y-5.0126
X6.4882Y-5.1126
X6.5882Y-2.7126
X6.5882Y-2.8126
X6.5882Y-5.0126
X6.5882Y-5.1126
X6.6882Y-2.7126
X6.6882Y-2.8126
X6.6882Y-5.0126
X6.6882Y-5.1126
X6.7882Y-2.7126
X6.7882Y-2.8126
X6.7882Y-5.0126
X6.7882Y-5.1126
X6.8882Y-2.7126
X6.8882Y-2.8126
X6.8882Y-5.0126
X6.8882Y-5.1126
X6.9882Y-2.7126
X6.9882Y-2.8126
X6.9882Y-5.0126
X6.9882Y-5.1126
X7.0882Y-2.7126
X7.0882Y-2.8126
X7.0882Y-5.0126
X7.0882Y-5.1126
X7.1882Y-5.0126
X7.1882Y-5.1126
X7.2882Y-5.0126
X7.2882Y-5.1126
X7.3882Y-5.0126
X7.3882Y-5.1126
X7.4882Y-3.7126
X7.4882Y-3.8126
X7.4882Y-3.9126
X7.4882Y-4.0126
X7.4882Y-4.1126
X7.4882Y-4.2126
X7.4882Y-4.3126
X7.4882Y-4.4126
X7.4882Y-4.5126
X7.4882Y-4.6126
X7.4882Y-4.7126
X7.5882Y-3.7126
X7.5882Y-3.8126
X7.5882Y-3.9126
X7.5882Y-4.0126
X7.5882Y-4.1126
X7.5882Y-4.2126
X7.5882Y-4.3126
X7.5882Y-4.4126
X7.5882Y-4.5126
X7.5882Y-4.6126
X7.5882Y-4.7126
T6
X6.1676Y-4.6134
X6.2676Y-4.6134
X6.3676Y-4.6134
X7.425Y-2.9576
X7.425Y-3.0576
X7.425Y-3.1576
X7.425Y-3.2576
X7.425Y-3.3576
T7
X3.9426Y-2.6426
X4.1426Y-2.6426
X4.1426Y-2.8426
T8
X3.9034Y-3.312
X3.905Y-3.6426
X3.905Y-3.9726
X4.1987Y-3.312
X4.2002Y-3.6426
X4.2002Y-3.9726
X4.3626Y-2.595
X4.3626Y-2.8902
X4.6326Y-3.435
X4.6326Y-3.7302
X4.6326Y-3.8334
X4.6326Y-4.1287
X4.961Y-3.8334
X4.961Y-4.1287
X4.9626Y-3.435
X4.9626Y-3.7302
T9
X3.4283Y-2.8839
X3.4283Y-3.2839
X3.4283Y-3.5925
X3.4283Y-3.9925
T10
X3.2957Y-2.6673
X3.2957Y-5.3051
X5.7366Y-2.6673
X5.9335Y-4.2421
X7.7051Y-2.6673
X7.7051Y-5.3051
T4
G00X3.4118Y-4.2421
M15
G01X3.4709Y-4.2421
M16
G05
G00X3.4118Y-4.5374
M15
G01X3.4709Y-4.5374
M16
G05
G00X3.4118Y-4.8327
M15
G01X3.4709Y-4.8327
M16
G05
G00X3.4118Y-5.128
M15
G01X3.4709Y-5.128
M16
G05
T8
G00X3.2957Y-4.3661
M15
G01X3.2957Y-4.4134
M16
G05
G00X3.2957Y-4.9567
M15
G01X3.2957Y-5.0039
M16
G05
T0
M30
